HIERARCHY
ROOT newVegas:Hips
{
	OFFSET 0.000000 96.479958 0.000000
	CHANNELS 6 Xposition Yposition Zposition Xrotation Yrotation Zrotation
	JOINT newVegas:Pelvis
	{
		OFFSET 0.000000 0.000000 0.000000
		CHANNELS 3 Xrotation Yrotation Zrotation
		JOINT newVegas:LeftUpLeg
		{
			OFFSET 18.735201 -5.666702 -4.541200
			CHANNELS 3 Xrotation Yrotation Zrotation
			JOINT newVegas:LeftLeg
			{
				OFFSET -0.021200 -31.938179 0.493100
				CHANNELS 3 Xrotation Yrotation Zrotation
				JOINT newVegas:LeftFoot
				{
					OFFSET 0.021200 -31.938179 -4.336299
					CHANNELS 3 Xrotation Yrotation Zrotation
					JOINT newVegas:LeftToeBase
					{
						OFFSET 0.943001 -26.722000 15.023500
						CHANNELS 3 Xrotation Yrotation Zrotation
						End Site
						{
							OFFSET 0.000000 30.670183 0.000000
						}
					}
				}
				JOINT newVegas:Left_PantLeg
				{
					OFFSET 0.663870 -9.044666 -1.108900
					CHANNELS 3 Xrotation Yrotation Zrotation
					End Site
					{
						OFFSET 1.415995 20.635357 0.000000
					}
				}
			}
		}
		JOINT newVegas:RightUpLeg
		{
			OFFSET -18.735201 -5.666702 -4.541200
			CHANNELS 3 Xrotation Yrotation Zrotation
			JOINT newVegas:RightLeg
			{
				OFFSET 0.018946 -31.938133 0.493100
				CHANNELS 3 Xrotation Yrotation Zrotation
				JOINT newVegas:RightFoot
				{
					OFFSET -0.018946 -31.938126 -4.336299
					CHANNELS 3 Xrotation Yrotation Zrotation
					JOINT newVegas:RightToeBase
					{
						OFFSET -0.943001 -26.722004 15.023500
						CHANNELS 3 Xrotation Yrotation Zrotation
						End Site
						{
							OFFSET 0.000000 30.670187 0.000000
						}
					}
				}
				JOINT newVegas:Right_PantLeg
				{
					OFFSET -0.661674 -9.044716 -1.108900
					CHANNELS 3 Xrotation Yrotation Zrotation
					End Site
					{
						OFFSET -1.415958 20.635269 0.000000
					}
				}
			}
		}
	}
	JOINT newVegas:Spine
	{
		OFFSET 0.000000 10.199997 -0.299500
		CHANNELS 3 Xrotation Yrotation Zrotation
		JOINT newVegas:Spine1
		{
			OFFSET 0.000000 11.900002 -1.516600
			CHANNELS 3 Xrotation Yrotation Zrotation
			JOINT newVegas:Spine2
			{
				OFFSET 0.000000 13.600006 -2.842500
				CHANNELS 3 Xrotation Yrotation Zrotation
				JOINT newVegas:Neck
				{
					OFFSET 0.000000 9.624100 -2.890100
					CHANNELS 3 Xrotation Yrotation Zrotation
					JOINT newVegas:Head
					{
						OFFSET 0.000000 14.068802 -1.351900
						CHANNELS 3 Xrotation Yrotation Zrotation
						JOINT newVegas:Hair_Back
						{
							OFFSET 0.000000 3.231903 -17.524799
							CHANNELS 3 Xrotation Yrotation Zrotation
							End Site
							{
								OFFSET 0.000000 19.849884 0.000000
							}
						}
						JOINT newVegas:Hair_Front
						{
							OFFSET 0.000000 31.260406 4.573800
							CHANNELS 3 Xrotation Yrotation Zrotation
							JOINT newVegas:Hair_Front1
							{
								OFFSET 0.000000 2.284103 11.993300
								CHANNELS 3 Xrotation Yrotation Zrotation
								JOINT newVegas:Hair_Front2
								{
									OFFSET 0.000000 2.284103 11.993300
									CHANNELS 3 Xrotation Yrotation Zrotation
									End Site
									{
										OFFSET 0.000000 12.208862 0.000000
									}
								}
							}
						}
						JOINT newVegas:Jowel
						{
							OFFSET 0.000000 -7.458206 6.864100
							CHANNELS 3 Xrotation Yrotation Zrotation
							End Site
							{
								OFFSET 0.000000 19.849884 0.000000
							}
						}
					}
				}
				JOINT newVegas:LeftShoulder
				{
					OFFSET 15.263000 10.923401 -0.547700
					CHANNELS 3 Xrotation Yrotation Zrotation
					JOINT newVegas:LeftArm
					{
						OFFSET 25.438599 -2.830597 -13.032500
						CHANNELS 3 Xrotation Yrotation Zrotation
						JOINT newVegas:LeftForeArm
						{
							OFFSET 29.960503 0.000000 0.000000
							CHANNELS 3 Xrotation Yrotation Zrotation
							JOINT newVegas:LeftHand
							{
								OFFSET 27.849251 0.000000 0.000000
								CHANNELS 3 Xrotation Yrotation Zrotation
								JOINT newVegas:LeftHandThumb1
								{
									OFFSET 4.487587 -3.305161 6.305391
									CHANNELS 3 Xrotation Yrotation Zrotation
									JOINT newVegas:LeftHandThumb2
									{
										OFFSET 5.480453 -3.164139 3.164143
										CHANNELS 3 Xrotation Yrotation Zrotation
										JOINT newVegas:LeftHandThumb3
										{
											OFFSET 5.159721 -2.978973 2.978967
											CHANNELS 3 Xrotation Yrotation Zrotation
											End Site
											{
												OFFSET 2.494507 5.926697 1.738678
											}
										}
									}
								}
								JOINT newVegas:LeftHandIndex1
								{
									OFFSET 18.578728 -0.527832 5.208049
									CHANNELS 3 Xrotation Yrotation Zrotation
									JOINT newVegas:LeftHandIndex2
									{
										OFFSET 3.192009 0.000000 0.000000
										CHANNELS 3 Xrotation Yrotation Zrotation
										JOINT newVegas:LeftHandIndex3
										{
											OFFSET 3.835129 0.000000 0.000000
											CHANNELS 3 Xrotation Yrotation Zrotation
											End Site
											{
												OFFSET -0.034599 3.816971 0.371180
											}
										}
									}
								}
								JOINT newVegas:LeftHandMiddle1
								{
									OFFSET 18.476105 0.000000 0.000000
									CHANNELS 3 Xrotation Yrotation Zrotation
									JOINT newVegas:LeftHandMiddle2
									{
										OFFSET 3.324875 0.000000 0.000000
										CHANNELS 3 Xrotation Yrotation Zrotation
										JOINT newVegas:LeftHandMiddle3
										{
											OFFSET 4.596550 0.000000 0.000000
											CHANNELS 3 Xrotation Yrotation Zrotation
											End Site
											{
												OFFSET 0.057701 4.578827 0.399218
											}
										}
									}
								}
								JOINT newVegas:LeftHandRing1
								{
									OFFSET 17.732719 0.121887 -4.201567
									CHANNELS 3 Xrotation Yrotation Zrotation
									JOINT newVegas:LeftHandRing2
									{
										OFFSET 2.733170 0.000000 0.000000
										CHANNELS 3 Xrotation Yrotation Zrotation
										JOINT newVegas:LeftHandRing3
										{
											OFFSET 3.178268 0.000000 0.000000
											CHANNELS 3 Xrotation Yrotation Zrotation
											End Site
											{
												OFFSET 0.119102 3.170624 0.185394
											}
										}
									}
								}
								JOINT newVegas:LeftHandPinky1
								{
									OFFSET 15.989624 -0.606689 -7.535461
									CHANNELS 3 Xrotation Yrotation Zrotation
									JOINT newVegas:LeftHandPinky2
									{
										OFFSET 2.538986 0.000000 0.000000
										CHANNELS 3 Xrotation Yrotation Zrotation
										JOINT newVegas:LeftHandPinky3
										{
											OFFSET 2.593102 0.000000 0.000000
											CHANNELS 3 Xrotation Yrotation Zrotation
											End Site
											{
												OFFSET -0.150902 2.584198 0.152708
											}
										}
									}
								}
							}
							JOINT newVegas:Left_Sleeve
							{
								OFFSET 0.267448 -0.649796 0.577675
								CHANNELS 3 Xrotation Yrotation Zrotation
								End Site
								{
									OFFSET 0.000000 15.991241 0.000000
								}
							}
							JOINT newVegas:Left_CapeC
							{
								OFFSET 15.715958 -8.608795 -6.935905
								CHANNELS 3 Xrotation Yrotation Zrotation
								JOINT newVegas:Left_CapeC1
								{
									OFFSET 0.000000 -8.688499 0.000000
									CHANNELS 3 Xrotation Yrotation Zrotation
									End Site
									{
										OFFSET 0.000000 8.688499 0.000000
									}
								}
							}
						}
						JOINT newVegas:Left_CapeB
						{
							OFFSET 26.118385 -8.608795 -7.079235
							CHANNELS 3 Xrotation Yrotation Zrotation
							JOINT newVegas:Left_CapeB1
							{
								OFFSET 0.000000 -8.688499 0.000000
								CHANNELS 3 Xrotation Yrotation Zrotation
								End Site
								{
									OFFSET 0.000000 8.688499 0.000000
								}
							}
						}
						JOINT newVegas:Left_CapeA
						{
							OFFSET 5.115639 -8.608795 -10.395809
							CHANNELS 3 Xrotation Yrotation Zrotation
							JOINT newVegas:Left_CapeA1
							{
								OFFSET 0.000000 -8.688499 0.000000
								CHANNELS 3 Xrotation Yrotation Zrotation
								End Site
								{
									OFFSET 0.000000 8.688499 0.000000
								}
							}
						}
					}
				}
				JOINT newVegas:RightShoulder
				{
					OFFSET -15.263000 10.923401 -0.547700
					CHANNELS 3 Xrotation Yrotation Zrotation
					JOINT newVegas:RightArm
					{
						OFFSET -25.438599 -2.830597 -13.032500
						CHANNELS 3 Xrotation Yrotation Zrotation
						JOINT newVegas:RightForeArm
						{
							OFFSET -29.960503 0.000000 0.000000
							CHANNELS 3 Xrotation Yrotation Zrotation
							JOINT newVegas:RightHand
							{
								OFFSET -27.849251 0.000000 0.000000
								CHANNELS 3 Xrotation Yrotation Zrotation
								JOINT newVegas:RightHandThumb1
								{
									OFFSET -4.487587 -3.305161 6.305391
									CHANNELS 3 Xrotation Yrotation Zrotation
									JOINT newVegas:RightHandThumb2
									{
										OFFSET -5.480453 -3.164139 3.164143
										CHANNELS 3 Xrotation Yrotation Zrotation
										JOINT newVegas:RightHandThumb3
										{
											OFFSET -5.159721 -2.978973 2.978967
											CHANNELS 3 Xrotation Yrotation Zrotation
											End Site
											{
												OFFSET -2.494507 5.926697 1.738678
											}
										}
									}
								}
								JOINT newVegas:RightHandIndex1
								{
									OFFSET -18.578728 -0.527832 5.208049
									CHANNELS 3 Xrotation Yrotation Zrotation
									JOINT newVegas:RightHandIndex2
									{
										OFFSET -3.192009 0.000000 0.000000
										CHANNELS 3 Xrotation Yrotation Zrotation
										JOINT newVegas:RightHandIndex3
										{
											OFFSET -3.835129 0.000000 0.000000
											CHANNELS 3 Xrotation Yrotation Zrotation
											End Site
											{
												OFFSET 0.034599 3.816971 0.371180
											}
										}
									}
								}
								JOINT newVegas:RightHandMiddle1
								{
									OFFSET -18.476105 0.000000 0.000000
									CHANNELS 3 Xrotation Yrotation Zrotation
									JOINT newVegas:RightHandMiddle2
									{
										OFFSET -3.324875 0.000000 0.000000
										CHANNELS 3 Xrotation Yrotation Zrotation
										JOINT newVegas:RightHandMiddle3
										{
											OFFSET -4.596550 0.000000 0.000000
											CHANNELS 3 Xrotation Yrotation Zrotation
											End Site
											{
												OFFSET -0.057701 4.578827 0.399218
											}
										}
									}
								}
								JOINT newVegas:RightHandRing1
								{
									OFFSET -17.732719 0.121887 -4.201567
									CHANNELS 3 Xrotation Yrotation Zrotation
									JOINT newVegas:RightHandRing2
									{
										OFFSET -2.733170 0.000000 0.000000
										CHANNELS 3 Xrotation Yrotation Zrotation
										JOINT newVegas:RightHandRing3
										{
											OFFSET -3.178268 0.000000 0.000000
											CHANNELS 3 Xrotation Yrotation Zrotation
											End Site
											{
												OFFSET -0.119102 3.170624 0.185394
											}
										}
									}
								}
								JOINT newVegas:RightHandPinky1
								{
									OFFSET -15.989624 -0.606689 -7.535461
									CHANNELS 3 Xrotation Yrotation Zrotation
									JOINT newVegas:RightHandPinky2
									{
										OFFSET -2.538986 0.000000 0.000000
										CHANNELS 3 Xrotation Yrotation Zrotation
										JOINT newVegas:RightHandPinky3
										{
											OFFSET -2.593102 0.000000 0.000000
											CHANNELS 3 Xrotation Yrotation Zrotation
											End Site
											{
												OFFSET 0.150902 2.584198 0.152708
											}
										}
									}
								}
							}
							JOINT newVegas:Right_CapeC
							{
								OFFSET -15.715958 -8.608795 -6.935905
								CHANNELS 3 Xrotation Yrotation Zrotation
								JOINT newVegas:Right_CapeC1
								{
									OFFSET 0.000000 -8.688499 0.000000
									CHANNELS 3 Xrotation Yrotation Zrotation
									End Site
									{
										OFFSET 0.000000 8.688499 0.000000
									}
								}
							}
							JOINT newVegas:Right_Sleeve
							{
								OFFSET -0.267448 -0.649994 0.577675
								CHANNELS 3 Xrotation Yrotation Zrotation
								End Site
								{
									OFFSET 0.000000 15.991302 0.000000
								}
							}
						}
						JOINT newVegas:Right_CapeA
						{
							OFFSET -5.115540 -8.608795 -10.395824
							CHANNELS 3 Xrotation Yrotation Zrotation
							JOINT newVegas:Right_CapeA1
							{
								OFFSET 0.000000 -8.688499 0.000000
								CHANNELS 3 Xrotation Yrotation Zrotation
								End Site
								{
									OFFSET 0.000000 8.688499 0.000000
								}
							}
						}
						JOINT newVegas:Right_CapeB
						{
							OFFSET -26.118187 -8.608795 -7.079266
							CHANNELS 3 Xrotation Yrotation Zrotation
							JOINT newVegas:Right_CapeB1
							{
								OFFSET 0.000000 -8.688499 0.000000
								CHANNELS 3 Xrotation Yrotation Zrotation
								End Site
								{
									OFFSET 0.000000 8.688499 0.000000
								}
							}
						}
					}
				}
				JOINT newVegas:Left_Collar
				{
					OFFSET 18.625099 8.655502 8.828100
					CHANNELS 3 Xrotation Yrotation Zrotation
					JOINT newVegas:Left_Collar1
					{
						OFFSET 14.783401 10.540405 -1.259500
						CHANNELS 3 Xrotation Yrotation Zrotation
						End Site
						{
							OFFSET 0.000000 18.199875 0.000000
						}
					}
				}
				JOINT newVegas:Collar_Back
				{
					OFFSET 0.000000 15.630707 -20.132601
					CHANNELS 3 Xrotation Yrotation Zrotation
					End Site
					{
						OFFSET 0.000000 22.523010 0.000000
					}
				}
				JOINT newVegas:Left_Peck
				{
					OFFSET 17.239599 -5.132599 25.482599
					CHANNELS 3 Xrotation Yrotation Zrotation
					End Site
					{
						OFFSET 0.000000 22.523010 0.000000
					}
				}
				JOINT newVegas:Right_Peck
				{
					OFFSET -17.239599 -5.132202 25.482599
					CHANNELS 3 Xrotation Yrotation Zrotation
					End Site
					{
						OFFSET 0.000000 22.523010 0.000000
					}
				}
				JOINT newVegas:Right_Collar
				{
					OFFSET -18.625099 8.655792 8.828100
					CHANNELS 3 Xrotation Yrotation Zrotation
					JOINT newVegas:Right_Collar1
					{
						OFFSET -14.783401 10.539993 -1.259500
						CHANNELS 3 Xrotation Yrotation Zrotation
						End Site
						{
							OFFSET 0.000000 18.199631 0.000000
						}
					}
				}
			}
		}
		JOINT newVegas:Belly
		{
			OFFSET 0.000000 -6.540398 9.014299
			CHANNELS 3 Xrotation Yrotation Zrotation
			End Site
			{
				OFFSET 0.000000 11.566666 0.000000
			}
		}
	}
	JOINT newVegas:ElvisFacialAnim_Joint
	{
		OFFSET 1.000000 -95.330101 -8.825800
		CHANNELS 3 Xrotation Yrotation Zrotation
		End Site
		{
			OFFSET 0.000000 35.315800 0.000000
		}
	}
}
MOTION
Frames: 4
Frame Time: 0.033333
-1.390361 94.627373 1.945143 -16.800662 -51.639877 -11.072267 0.000000 0.000002 0.000000 -21.028706 8.254252 4.796277 47.628494 10.191830 5.362063 -0.123199 9.462315 0.585281 0.000001 -0.000002 -0.000001 0.000000 0.000002 -0.000001 -3.180997 -17.869815 -4.407110 28.170466 -9.860406 0.694080 -16.067206 -11.911345 0.153558 0.000000 -0.000000 -0.000000 -0.000001 0.000001 -0.000000 21.553417 10.239948 -0.201219 1.667529 0.221670 -7.499126 10.890676 -4.207207 -2.147401 0.160367 2.999858 0.240072 0.160368 2.999868 0.240070 0.000000 -0.000001 0.000000 0.160445 2.999849 0.240071 0.160367 2.999861 0.240066 -0.000002 0.000001 -0.000000 0.000000 -0.000001 0.000000 -37.565183 -4.847902 1.578453 -41.611196 -1.935675 -58.303936 0.000002 -71.600211 0.000014 -112.994497 2.945717 42.706608 1.567997 0.456386 2.719343 19.473185 -1.474903 7.636917 0.000002 -0.000002 -0.000001 -1.882818 2.129426 -39.817008 2.947090 5.081728 -60.200529 0.000002 -0.000002 0.000001 0.405920 5.507039 -52.453165 3.387136 5.308613 -65.057456 -0.000003 -0.000002 -0.000001 -0.074383 5.736764 -61.061440 4.422096 5.674465 -75.840385 -0.000001 -0.000000 -0.000002 2.216833 7.072507 -64.435438 4.422614 5.674582 -75.845808 0.000000 -0.000007 0.000003 0.000000 -0.000002 -0.000000 0.000000 -0.000002 -0.000000 0.000000 -0.000001 -0.000001 0.000001 0.000000 -0.000001 0.000001 -0.000001 0.000000 0.000001 0.000000 -0.000001 0.000001 0.000000 -0.000000 -41.176297 -8.605640 -9.942307 -46.737014 47.991962 114.863769 -0.000727 96.778931 0.000705 -45.113294 -23.235395 -20.190664 8.377125 -4.904146 11.022003 21.620201 -18.183931 -18.379230 0.000001 0.000000 0.000001 -1.101404 1.407139 15.159489 1.422365 -3.352167 45.974089 0.000000 -0.000000 -0.000002 3.413058 -7.186252 51.650259 6.296799 -4.359575 110.634667 0.000000 0.000000 0.000001 -3.349040 -2.600403 57.010554 5.440864 -4.590889 99.698168 0.000001 0.000001 0.000001 -3.996429 -3.303959 64.593850 4.058820 -4.618656 82.610510 0.000001 0.000002 -0.000003 0.000000 0.000001 -0.000001 0.000001 0.000001 -0.000002 0.000000 0.000001 -0.000001 -0.000001 0.000001 -0.000001 -0.000001 0.000002 -0.000001 -0.000001 0.000001 -0.000001 -0.000001 0.000002 0.000000 -0.000000 0.000001 -0.000000 -0.000000 0.000001 -0.000000 -0.000000 0.000001 -0.000000 -0.000000 0.000001 -0.000000 -0.000000 0.000001 -0.000000 -0.000000 0.000001 -0.000000 -0.000000 0.000001 -0.000000 0.000000 0.000002 -0.000001 0.000000 0.000002 0.000000 
2.186637 94.243134 2.233121 -16.656002 -51.468344 -10.804277 -0.000000 -0.000000 0.000000 -18.055836 8.292872 6.003836 48.251690 9.896113 7.461556 -1.810187 10.871483 4.905092 -0.000001 0.000000 -0.000002 0.000001 0.000000 -0.000000 -8.364016 -16.953050 -6.966375 32.041968 -9.911255 0.034413 -14.905421 -12.150733 1.551348 0.000000 -0.000000 -0.000000 0.000002 -0.000000 -0.000000 20.611991 9.749107 -0.638122 1.804801 0.189903 -7.397937 11.033425 -4.211037 -2.037515 0.059290 2.955173 0.238441 0.059296 2.955164 0.238439 0.000001 -0.000001 -0.000000 0.059359 2.955163 0.238434 0.059220 2.955136 0.238454 -0.000001 -0.000001 -0.000001 0.000001 -0.000001 -0.000000 -37.577259 -4.950244 1.503360 -41.663543 -2.252580 -58.162893 -0.000129 -71.142991 -0.000129 -113.498326 3.348137 42.401521 2.386799 0.438015 3.289616 19.523542 -1.512517 7.612208 0.000002 0.000004 -0.000001 -1.881612 2.092726 -39.549138 2.960104 5.089135 -60.347276 -0.000006 -0.000001 0.000001 0.395186 5.483309 -52.167004 3.407782 5.318107 -65.280353 -0.000005 -0.000000 0.000000 -0.130239 5.706023 -61.062376 4.413210 5.672215 -75.750479 0.000004 -0.000002 -0.000001 2.162086 7.035494 -64.011303 4.434239 5.677503 -75.963506 0.000001 -0.000005 -0.000003 -0.000000 0.000002 -0.000002 -0.000000 0.000002 -0.000002 -0.000001 0.000003 -0.000003 0.000002 0.000001 -0.000000 0.000002 0.000001 0.000001 0.000002 0.000001 -0.000000 0.000002 -0.000000 0.000001 -41.261654 -8.541941 -10.257910 -46.964152 47.956193 115.482912 -0.000887 96.887490 0.000837 -44.782706 -23.088722 -21.032109 8.231987 -4.561692 10.994680 21.830615 -18.516412 -17.463148 -0.000000 -0.000002 -0.000001 -1.122304 1.453052 15.255547 1.422377 -3.352196 45.974335 0.000000 -0.000001 -0.000001 3.521440 -7.265691 51.769624 6.301570 -4.357774 110.697491 0.000000 0.000000 0.000001 -3.298293 -2.653587 57.156290 5.440796 -4.590888 99.697287 0.000000 0.000001 -0.000000 -3.889957 -3.368661 64.690497 4.058572 -4.618588 82.607245 -0.000002 0.000002 0.000001 -0.000003 0.000001 -0.000001 -0.000001 -0.000000 -0.000002 -0.000003 0.000000 -0.000002 0.000002 0.000001 0.000001 0.000002 0.000002 0.000003 0.000002 0.000001 0.000001 0.000002 0.000002 0.000004 -0.000000 -0.000001 0.000001 -0.000000 -0.000001 0.000001 -0.000000 -0.000001 0.000001 -0.000000 -0.000001 0.000001 -0.000000 -0.000001 0.000001 -0.000000 -0.000001 0.000001 -0.000000 -0.000001 0.000001 -0.000000 0.000002 -0.000001 -0.000000 -0.000000 0.000000 
5.964900 93.435455 2.635676 -16.632141 -51.152926 -10.619523 -0.000000 -0.000001 -0.000000 -14.507320 8.941062 7.942782 45.902143 9.784120 9.187719 -0.512306 8.619832 8.055449 0.000000 0.000001 -0.000001 0.000000 0.000001 -0.000002 -13.998625 -16.117414 -10.260787 36.531294 -9.765653 -0.172965 -13.443025 -11.890801 3.024936 0.000000 0.000000 0.000000 0.000000 -0.000000 0.000000 19.500690 9.093080 -1.211902 1.990088 0.151315 -7.308759 11.223838 -4.222597 -1.938225 -0.064754 2.958492 0.213773 -0.064750 2.958501 0.213769 0.000002 0.000004 -0.000000 -0.064762 2.958506 0.213769 -0.064820 2.958492 0.213777 -0.000001 0.000002 -0.000001 0.000002 0.000004 -0.000001 -37.582706 -5.186379 1.479666 -41.528237 -2.462805 -58.146001 0.000046 -70.616267 0.000051 -113.991179 3.741222 42.221357 2.903603 0.532695 3.758379 19.385566 -1.387684 7.745954 0.000002 -0.000004 -0.000003 -1.880231 2.056241 -39.282549 2.975609 5.097895 -60.521896 0.000003 -0.000001 0.000000 0.372589 5.446785 -51.818043 3.425076 5.326008 -65.466974 -0.000002 -0.000004 0.000000 -0.217540 5.658863 -61.075190 4.396711 5.668028 -75.583440 0.000001 0.000001 0.000000 2.200492 7.043009 -63.559548 4.441729 5.679348 -76.039089 -0.000001 -0.000005 -0.000002 0.000000 0.000004 -0.000002 0.000000 0.000004 -0.000002 -0.000000 0.000004 -0.000002 0.000000 0.000000 0.000002 -0.000000 0.000000 0.000003 0.000000 0.000000 0.000002 0.000000 -0.000001 0.000002 -41.326449 -8.559271 -10.577388 -47.091385 47.936050 116.017142 0.000596 97.070990 -0.000582 -44.767730 -23.196687 -22.096733 7.970495 -3.943170 10.947593 21.811096 -19.022425 -16.180798 0.000005 -0.000000 -0.000000 -1.153894 1.407888 15.728915 1.422371 -3.352213 45.974352 0.000001 -0.000001 0.000003 3.659087 -7.356502 52.102117 6.306337 -4.355976 110.760199 0.000001 -0.000000 0.000000 -3.307224 -2.695083 57.503240 5.434659 -4.591921 99.620720 -0.000000 0.000003 -0.000002 -3.857621 -3.427451 64.997774 4.077856 -4.621075 82.846950 -0.000000 -0.000002 -0.000001 0.000003 0.000003 -0.000001 0.000003 0.000001 -0.000002 0.000003 0.000002 -0.000001 -0.000000 -0.000002 0.000004 -0.000000 -0.000001 0.000004 -0.000000 -0.000002 0.000004 -0.000000 -0.000001 0.000005 -0.000001 0.000000 -0.000000 -0.000001 0.000000 -0.000000 -0.000001 0.000000 -0.000000 -0.000001 0.000000 -0.000000 -0.000001 0.000000 -0.000000 -0.000001 0.000000 -0.000000 -0.000001 0.000000 -0.000000 0.000001 0.000000 -0.000000 -0.000000 -0.000001 -0.000000 
10.059748 92.526237 3.160298 -16.656364 -50.301457 -10.470463 -0.000000 0.000001 0.000000 -10.419620 9.070115 10.503200 41.223033 7.890127 9.604530 2.875611 4.257604 8.867159 0.000003 0.000002 -0.000001 0.000002 0.000000 -0.000002 -19.008586 -15.152420 -13.748197 39.540788 -9.332210 -0.358169 -10.343573 -11.772364 4.688496 0.000000 -0.000000 -0.000000 0.000001 -0.000000 -0.000000 18.318219 8.364472 -1.905727 2.089035 0.071825 -7.347348 11.320374 -4.303511 -1.954763 -0.145360 2.907056 0.426783 -0.145356 2.907069 0.426783 0.000001 0.000003 -0.000000 -0.145357 2.907068 0.426782 -0.145350 2.907053 0.426781 0.000000 -0.000002 0.000001 0.000001 0.000003 -0.000001 -37.603439 -5.487386 1.855289 -40.904490 -2.770366 -57.992472 0.000115 -70.224911 0.000117 -115.002846 3.626843 41.871536 3.070344 1.224661 4.246974 18.425132 -0.536239 8.643141 0.000001 0.000003 -0.000002 -1.875886 1.961950 -38.593578 3.053620 5.141034 -61.396249 -0.000002 -0.000000 0.000001 0.437813 5.470607 -51.295144 3.515026 5.365991 -66.432312 -0.000006 -0.000001 0.000002 -0.492495 5.509126 -61.098508 4.362263 5.659117 -75.234500 -0.000001 0.000001 0.000002 1.883398 6.873222 -63.125667 4.430456 5.676559 -75.925032 -0.000001 -0.000003 0.000001 0.000001 0.000001 -0.000001 0.000001 0.000001 -0.000001 0.000001 0.000001 -0.000002 -0.000002 -0.000001 0.000001 -0.000002 -0.000002 0.000002 -0.000002 -0.000001 0.000001 -0.000002 -0.000002 0.000001 -41.385755 -8.612255 -10.887116 -47.194500 47.852247 116.506539 -0.000490 97.258567 0.000462 -44.824329 -23.475990 -23.007953 7.825583 -3.599540 10.922606 21.650071 -19.269931 -15.629254 0.000002 -0.000001 0.000001 -1.152283 1.276838 16.106687 1.422350 -3.352180 45.973949 0.000000 -0.000000 -0.000001 3.708442 -7.388293 52.225928 6.307161 -4.355666 110.771147 -0.000000 -0.000001 -0.000002 -3.405565 -2.672814 57.799130 5.432986 -4.592214 99.599833 0.000001 0.000001 -0.000002 -3.892069 -3.442664 65.219093 4.095599 -4.623237 83.067012 0.000000 0.000000 -0.000003 -0.000001 -0.000000 0.000000 -0.000001 -0.000001 0.000001 -0.000001 -0.000000 -0.000001 -0.000000 -0.000003 -0.000000 -0.000000 -0.000002 0.000002 -0.000000 -0.000003 -0.000000 0.000000 -0.000002 0.000003 0.000001 0.000001 -0.000000 0.000001 0.000001 -0.000000 0.000001 0.000001 -0.000000 0.000001 0.000001 -0.000000 0.000001 0.000001 -0.000000 0.000001 0.000001 -0.000000 0.000001 0.000001 -0.000000 -0.000000 -0.000001 0.000000 -0.000000 0.000001 0.000000 
